Patient4_TMGait_0pt6_01_right_42_GRF.mot
version=1
nRows=32
nColumns=19
inDegrees=no
endheader
time	F1x	F1y	F1z	M1x	M1y	M1z	F2x	F2y	F2z	M2x	M2y	M2z	EC1x	EC1y	EC1z	EC2x	EC2y	EC2z
50.51	4.2315	702.8083	46.3443	-236.3364	-43.788	704.4162	3.0268	-7.2795	10.7751	-3.8516	-13.4643	-12.5542	-0.0592	0.0182	-0.0073	-0.0462	0.0165	0.9585
50.5221	2.4102	709.4669	48.2035	-237.8703	-45.4092	706.5157	2.1215	-3.7854	7.2432	-2.0722	-9.1033	-7.3342	-0.0592	0.0182	-0.0073	-0.0462	0.0165	0.9585
50.5341	1.3929	717.3436	49.3795	-239.9813	-46.0907	709.2322	1.3081	-0.78636	4.2527	-0.55549	-5.3772	-2.8419	-0.0592	0.0182	-0.0073	-0.0462	0.0165	0.9585
50.5462	1.2822	726.1389	49.9124	-242.5935	-45.8823	712.4664	0.63682	1.5581	1.9799	0.61643	-2.5142	0.68065	-0.0592	0.0182	-0.0073	-0.0462	0.0165	0.9585
50.5583	2.0308	735.3061	49.9192	-245.5002	-44.9308	715.8391	0.1554	3.2274	0.41288	1.4424	-0.52001	3.1854	-0.0592	0.0182	-0.0073	-0.0462	0.0165	0.9585
50.5704	3.5212	744.1046	49.6408	-248.4004	-43.5104	718.7647	-0.18846	4.3194	-0.55867	1.9722	0.73963	4.8289	-0.0592	0.0182	-0.0073	-0.0462	0.0165	0.9585
50.5824	5.6194	751.7523	49.251	-250.9748	-41.8255	720.5827	-0.39643	4.9251	-1.0837	2.2607	1.4357	5.743	-0.0592	0.0182	-0.0073	-0.0462	0.0165	0.9585
50.5945	8.188	757.6325	48.9117	-252.9602	-40.0651	720.7886	-0.54199	5.1568	-1.301	2.3623	1.7505	6.1218	-0.0592	0.0182	-0.0073	-0.0462	0.0165	0.9585
50.6066	11.1037	761.4388	48.7166	-254.2041	-38.3541	719.1586	-0.62615	5.0518	-1.3286	2.3041	1.8281	6.0292	-0.0592	0.0182	-0.0073	-0.0462	0.0165	0.9585
50.6186	14.226	763.2429	48.7376	-254.6853	-36.8047	715.8235	-0.71339	4.6372	-1.2533	2.0994	1.7921	5.5344	-0.0592	0.0182	-0.0073	-0.0462	0.0165	0.9585
50.6307	17.4211	763.4314	49.027	-254.5009	-35.5097	711.2058	-0.79102	3.8657	-1.1457	1.7359	1.7212	4.5917	-0.0592	0.0182	-0.0073	-0.0462	0.0165	0.9585
50.6428	20.5685	762.5983	49.6102	-253.8296	-34.533	705.9231	-0.88657	2.7016	-1.0485	1.199	1.6631	3.1973	-0.0592	0.0182	-0.0073	-0.0462	0.0165	0.9585
50.6549	23.5709	761.3579	50.513	-252.871	-33.9296	700.587	-0.95728	1.0901	-0.97469	0.47172	1.6127	1.2947	-0.0592	0.0182	-0.0073	-0.0462	0.0165	0.9585
50.6669	26.3484	760.208	51.7036	-251.798	-33.6877	695.6816	-0.97342	-0.93402	-0.92545	-0.43246	1.5508	-1.0532	-0.0592	0.0182	-0.0073	-0.0462	0.0165	0.9585
50.679	28.8486	759.3899	53.1442	-250.7074	-33.7834	691.4259	-0.84722	-3.2428	-0.86687	-1.4549	1.4054	-3.7015	-0.0592	0.0182	-0.0073	-0.0462	0.0165	0.9585
50.6911	31.0106	758.8858	54.765	-249.6194	-34.1654	687.7863	-0.47728	-5.495	-0.76784	-2.4471	1.098	-6.2547	-0.0592	0.0182	-0.0073	-0.0462	0.0165	0.9585
50.7031	32.8226	758.4852	56.5156	-248.4971	-34.7911	684.5247	0.27146	-7.0882	-0.57308	-3.1417	0.51598	-8.0412	-0.0592	0.0182	-0.0073	-0.0462	0.0165	0.9585
50.7152	34.2977	757.9029	58.3134	-247.2807	-35.5823	681.33	1.5387	-7.0568	-0.23345	-3.115	-0.44816	-7.985	-0.0592	0.0182	-0.0073	-0.0462	0.0165	0.9585
50.7273	35.5432	756.8061	60.0853	-245.899	-36.4474	677.8246	3.4461	-4.0301	0.31187	-1.7662	-1.8979	-4.5617	-0.0592	0.0182	-0.0073	-0.0462	0.0165	0.9585
50.7394	36.7078	754.8804	61.6955	-244.2887	-37.2249	673.6661	6.0493	3.754	1.1065	1.6774	-3.8915	4.1799	-0.0592	0.0182	-0.0073	-0.0462	0.0165	0.9585
50.7514	38.003	751.742	63.0032	-242.3643	-37.7321	668.4485	9.2561	18.3441	2.1596	8.1131	-6.3864	20.5178	-0.0592	0.0182	-0.0073	-0.0462	0.0165	0.9585
50.7635	39.6027	746.8473	63.816	-239.9887	-37.7506	661.6592	12.7465	41.7426	3.415	18.4219	-9.166	46.6711	-0.0592	0.0182	-0.0073	-0.0462	0.0165	0.9585
50.7756	41.6444	739.3552	63.9527	-236.9225	-37.0855	652.5523	15.8303	75.3919	4.7085	33.232	-11.7347	84.2416	-0.0592	0.0182	-0.0073	-0.0462	0.0165	0.9585
50.7876	44.1339	728.0789	63.1991	-232.8023	-35.5579	640.1258	17.3721	119.2663	5.7316	52.5294	-13.2407	133.1721	-0.0592	0.0182	-0.0073	-0.0462	0.0165	0.9585
50.7997	46.9289	711.5011	61.34	-227.1487	-33.0447	623.1102	15.9128	170.9273	5.9853	75.225	-12.5152	190.7389	-0.0592	0.0182	-0.0073	-0.0462	0.0165	0.9585
50.8118	49.7233	688.0272	58.1829	-219.4477	-29.5021	600.2239	10.7346	225.0078	4.8972	98.9197	-8.6374	250.9701	-0.0592	0.0182	-0.0073	-0.0462	0.0165	0.9585
50.8239	52.1037	656.4089	53.6459	-209.2919	-25.0196	570.5046	2.9515	274.4298	1.8558	120.4781	-1.5743	305.9429	-0.0592	0.0182	-0.0073	-0.0462	0.0165	0.9585
50.8359	53.6063	616.1954	47.8381	-196.5169	-19.8597	533.6899	-5.4761	314.4789	-2.7915	137.8507	7.3717	350.1839	-0.0592	0.0182	-0.0073	-0.0462	0.0165	0.9585
50.848	53.8464	567.9102	41.0732	-181.2537	-14.4069	490.3533	-13.1781	345.3483	-8.4285	151.1079	16.9279	383.7543	-0.0592	0.0182	-0.0073	-0.0462	0.0165	0.9585
50.8601	52.615	512.8714	33.8401	-163.8804	-9.1198	441.6931	-19.2721	370.0179	-14.1175	161.6076	25.7181	409.851	-0.0592	0.0182	-0.0073	-0.0462	0.0165	0.9585
50.8721	49.8155	452.9983	26.5926	-144.9673	-4.3669	389.3824	-23.5921	392.4579	-19.105	171.1368	32.8637	432.888	-0.0592	0.0182	-0.0073	-0.0462	0.0165	0.9585
50.8842	45.4849	390.5604	19.7882	-125.1972	-0.48185	335.3223	-26.2645	416.3365	-22.8928	181.3444	37.9134	456.9208	-0.0592	0.0182	-0.0073	-0.0462	0.0165	0.9585
